<?xml version="1.0" standalone="no"?>
<!DOCTYPE svg PUBLIC "-//W3C//DTD SVG 20010904//EN"
 "http://www.w3.org/TR/2001/REC-SVG-20010904/DTD/svg10.dtd">
<svg version="1.0" xmlns="http://www.w3.org/2000/svg"
 width="260.000000pt" height="260.000000pt" viewBox="0 0 260.000000 260.000000"
 preserveAspectRatio="xMidYMid meet">
<metadata>
Created by potrace 1.11, written by Peter Selinger 2001-2013
</metadata>
<g transform="translate(0.000000,260.000000) scale(0.100000,-0.100000)"
fill="#000000" stroke="none">
<path d="M701 2570 c-175 -46 -283 -161 -327 -347 -14 -57 -15 -96 -8 -238 12
-268 11 -534 -4 -582 -30 -101 -96 -130 -162 -73 -19 16 -38 29 -42 30 -11 0
9 -59 36 -103 54 -93 115 -118 176 -72 50 37 53 10 4 -31 -86 -73 -194 -108
-302 -99 -61 6 -65 5 -48 -9 10 -8 53 -29 94 -46 74 -31 74 -31 161 -20 130
18 131 17 55 -68 -37 -40 -65 -74 -63 -76 2 -2 46 3 97 12 51 8 94 13 97 11 2
-2 -9 -32 -25 -65 -46 -95 -65 -178 -65 -284 0 -84 3 -101 28 -153 16 -32 34
-56 40 -54 8 2 15 51 19 137 4 74 12 156 18 184 20 94 78 165 165 202 61 25
61 24 5 -101 -42 -95 -59 -307 -31 -389 14 -41 82 -136 121 -171 l23 -20 -9
70 c-5 39 -9 120 -8 180 0 98 3 117 27 169 73 160 138 173 174 36 12 -47 17
-107 17 -222 1 -86 2 -155 3 -154 1 1 15 37 31 81 17 44 56 136 87 205 32 69
70 160 86 204 53 143 77 358 44 402 -14 19 -14 18 -32 -6 -41 -58 -121 -134
-160 -152 -36 -16 -49 -17 -83 -8 -48 13 -56 35 -45 118 13 101 14 96 -30 102
-36 5 -40 8 -38 32 1 21 -3 27 -15 25 -23 -3 -25 9 -11 66 6 26 8 59 5 73 -6
24 -10 26 -44 20 -81 -14 -87 -13 -90 16 -2 15 9 77 23 138 24 97 26 117 16
157 -14 53 -34 94 -57 117 -26 26 -33 78 -41 276 l-6 184 32 -37 c81 -91 195
-164 359 -227 71 -27 86 -38 112 -75 17 -25 33 -64 36 -88 6 -40 3 -48 -28
-83 -61 -68 -89 -116 -76 -131 20 -25 34 -13 52 44 20 62 74 127 102 121 32
-6 56 -53 61 -122 6 -64 13 -75 40 -58 9 6 6 25 -13 77 -27 73 -27 69 -8 240
4 39 1 57 -16 83 -31 51 -76 65 -226 72 -118 5 -134 8 -176 33 -56 33 -105 91
-147 174 -50 101 -39 166 43 248 51 51 50 51 -53 25z m457 -525 c63 -19 85
-48 85 -111 0 -52 -15 -74 -41 -58 -20 12 -151 165 -152 177 0 12 53 8 108 -8z"/>
<path d="M784 2465 c-16 -40 -18 -134 -4 -187 13 -45 64 -90 123 -108 23 -7
103 -14 177 -15 119 -2 143 -5 200 -28 35 -15 66 -24 68 -22 3 2 -1 19 -8 36
-20 46 -72 65 -220 78 -191 17 -219 22 -253 45 -17 12 -37 33 -44 46 -16 32
-16 95 1 142 7 21 11 40 8 43 -14 14 -34 2 -48 -30z"/>
<path d="M1702 2325 c-80 -18 -140 -47 -182 -86 -37 -35 -69 -102 -70 -141 0
-18 -10 -33 -30 -48 -53 -38 -65 -73 -65 -190 0 -89 4 -112 24 -155 20 -42 25
-77 35 -230 l11 -179 41 52 41 51 -13 58 c-36 153 -4 252 89 273 52 11 94 -11
117 -62 34 -74 28 -102 -48 -214 -44 -66 -69 -138 -81 -232 -16 -128 2 -164
132 -266 45 -36 107 -90 137 -121 65 -67 260 -199 345 -234 116 -48 216 -37
249 27 20 39 28 109 18 167 -11 68 0 114 36 145 41 35 44 60 13 108 -14 22
-31 48 -37 58 -11 19 -12 18 -50 -1 -24 -12 -62 -20 -99 -21 -75 -2 -193 -36
-263 -76 l-53 -30 -45 38 c-126 103 -182 263 -141 405 25 86 53 119 141 166
44 24 87 50 98 60 32 29 19 63 -39 103 -29 19 -51 40 -49 45 1 6 55 19 120 29
104 18 129 19 225 8 100 -11 113 -11 173 8 37 11 77 32 92 46 26 26 26 28 26
172 0 132 -12 222 -30 222 -4 0 -12 -11 -18 -24 -6 -13 -30 -37 -54 -54 -41
-28 -122 -72 -132 -72 -3 0 10 26 28 58 19 31 34 58 33 59 -1 1 -38 -7 -82
-18 -111 -28 -158 -22 -240 30 -37 24 -86 49 -109 58 -59 21 -217 26 -294 8z
m665 -1368 l72 0 -15 -29 c-29 -55 -79 -56 -142 -3 -37 31 -42 49 -9 39 12 -4
54 -7 94 -7z"/>
<path d="M766 1714 c-15 -39 -7 -42 53 -20 82 30 84 36 14 36 -46 0 -62 -4
-67 -16z"/>
<path d="M2529 1565 c-8 -8 -32 -20 -53 -27 -40 -13 -66 -41 -53 -55 4 -4 16
-2 25 4 10 6 32 14 49 17 33 8 45 18 56 48 8 23 -6 31 -24 13z"/>
<path d="M2155 1544 c-39 -20 -75 -54 -75 -71 0 -18 6 -17 48 12 45 31 48 31
113 1 58 -28 69 -26 69 9 0 26 -9 34 -60 52 -46 16 -59 16 -95 -3z"/>
<path d="M2463 1433 c-40 -16 34 -42 79 -28 20 7 18 9 -22 21 -25 8 -45 13
-45 13 0 0 -6 -3 -12 -6z"/>
<path d="M2110 1422 c0 -19 30 -33 83 -39 49 -5 56 -3 67 17 15 27 8 35 -18
21 -26 -14 -87 -14 -113 -1 -10 6 -19 7 -19 2z"/>
<path d="M1275 957 c0 -133 -17 -208 -76 -333 -16 -34 -39 -99 -51 -145 -18
-73 -20 -102 -15 -214 3 -72 11 -148 18 -170 15 -53 46 -95 69 -95 17 0 17 4
-7 45 -32 57 -40 140 -23 242 19 124 158 523 181 523 17 0 9 -89 -31 -326 -44
-258 -57 -376 -46 -418 10 -41 41 -66 81 -66 42 0 44 8 10 40 -30 28 -45 77
-45 143 0 81 31 266 62 372 22 75 31 129 35 218 l6 118 -25 -6 c-23 -6 -26 -3
-36 37 -13 50 -63 132 -89 146 -17 9 -18 3 -18 -111z"/>
<path d="M1537 942 c-11 -16 -46 -166 -41 -174 3 -4 31 -8 62 -8 34 0 74 -8
98 -19 41 -19 94 -67 94 -86 0 -10 97 -276 103 -282 2 -1 19 18 37 43 83 117
235 143 286 49 15 -28 15 -39 5 -80 -20 -79 -7 -71 90 56 68 90 75 79 -66 103
-146 25 -327 134 -632 381 -17 14 -34 22 -36 17z"/>
</g>
</svg>
